{"glyphs":{":":{"x_min":0,"x_max":413,"ha":413,"o":"m 96 506 q 96 548 126 578 q 157 608 200 608 q 243 608 273 578 q 304 548 304 506 q 304 463 273 433 q 243 403 200 403 q 157 403 126 433 q 96 463 96 506 z m 96 76 q 96 118 126 148 q 157 178 200 178 q 243 178 273 148 q 304 118 304 76 q 304 33 273 3 q 243 -27 200 -27 q 157 -27 126 3 q 96 33 96 76 z"},"$":{"x_min":0,"x_max":825,"ha":825,"o":"m 455 -20 q 455 -33 459 -84 q 462 -124 462 -149 q 462 -179 414 -179 q 385 -179 377 -164 q 372 -153 372 -122 q 372 -102 373 -69 q 373 -30 373 -17 q 292 -15 200 16 q 79 56 79 115 q 79 138 91 168 q 106 204 125 204 q 137 204 151 178 q 168 144 171 141 q 192 118 267 94 q 334 71 373 69 l 373 202 q 247 222 162 278 q 53 351 53 463 q 53 718 373 747 q 373 752 371 771 q 369 786 369 795 q 369 839 408 839 q 458 839 458 804 q 458 794 457 777 q 455 759 455 750 l 482 750 q 540 751 621 724 q 720 690 720 645 q 720 623 698 585 q 675 544 654 544 q 639 544 619 570 q 591 606 587 609 q 535 651 455 670 l 455 515 q 604 476 663 437 q 762 372 762 251 q 762 138 663 59 q 573 -13 455 -20 z m 373 538 l 373 673 q 337 673 301 662 q 252 647 252 619 q 252 563 373 538 z m 543 113 q 543 146 514 163 q 500 171 455 183 l 455 71 q 479 72 507 81 q 543 94 543 113 z"},"?":{"x_min":0,"x_max":546,"ha":546,"o":"m 160 76 q 160 118 191 148 q 222 178 264 178 q 307 178 337 148 q 368 118 368 76 q 368 33 337 3 q 307 -27 264 -27 q 222 -27 191 3 q 160 33 160 76 z m 273 755 q 477 755 477 602 q 477 512 434 455 q 418 434 382 403 q 344 370 330 353 q 313 333 303 281 q 296 246 265 246 q 234 246 212 272 q 190 298 190 329 q 190 367 215 441 q 239 514 239 558 q 239 587 223 598 q 211 606 182 606 q 174 606 157 594 q 141 583 124 583 q 99 583 99 619 q 99 677 159 718 q 212 755 273 755 z"},"<":{"x_min":0,"x_max":825,"ha":825,"o":"m 505 549 q 505 537 468 510 q 431 482 291 384 q 370 309 472 215 q 488 202 493 187 q 495 178 495 152 q 495 97 496 102 q 493 74 472 74 q 460 75 374 153 q 220 294 217 297 q 211 303 173 330 q 153 345 154 353 q 156 364 192 389 q 260 436 267 441 q 475 600 494 600 q 505 600 506 586 q 505 602 505 549 z"},"'":{"x_min":0,"x_max":506,"ha":506,"o":"m 243 753 q 275 753 291 732 q 303 717 303 698 q 303 649 291 572 q 273 456 242 456 q 214 456 196 569 q 180 665 183 693 q 186 724 207 740 q 224 753 243 753 z"},"=":{"x_min":0,"x_max":825,"ha":825,"o":"m 525 422 q 559 422 567 427 q 578 433 589 461 q 595 472 600 483 q 606 497 606 506 q 606 524 582 524 q 571 524 549 522 q 527 520 515 520 l 217 520 q 167 520 150 482 q 133 440 133 437 q 133 422 150 419 q 153 419 179 419 q 188 419 205 420 q 222 422 230 422 z m 525 222 q 559 222 567 227 q 578 233 589 261 q 595 272 600 283 q 606 297 606 307 q 606 324 582 324 q 571 324 549 322 q 527 320 515 320 l 217 320 q 166 320 150 282 q 133 241 133 236 q 133 222 150 219 q 153 219 179 219 q 188 219 205 220 q 222 222 230 222 z"},"a":{"x_min":0,"x_max":1301,"ha":1301,"o":""},"L":{"x_min":0,"x_max":1183,"ha":1183,"o":"m 1101 260 q 1101 250 1087 162 q 1072 62 1061 16 q 1059 8 1047 2 q 1036 -3 1028 -3 q 969 -3 850 -2 q 731 -1 671 -1 q 473 -1 341 -4 q 313 -4 249 -8 q 191 -11 158 -11 q 145 -11 130 -5 q 111 3 111 15 q 111 40 128 47 q 129 47 160 52 q 184 53 244 59 q 309 70 308 111 q 304 169 299 312 q 297 367 302 476 q 306 598 306 640 q 306 657 289 671 q 274 682 265 682 q 187 682 159 687 q 145 688 130 691 q 117 697 117 721 q 117 730 130 738 q 146 746 169 746 q 214 746 349 739 q 472 733 512 734 q 695 742 754 742 q 758 742 816 743 q 874 744 878 744 q 911 744 911 719 q 911 684 841 684 q 838 684 797 678 q 756 673 751 673 q 708 673 710 646 q 718 547 718 367 q 718 304 711 202 q 704 101 704 98 q 704 77 725 75 q 731 74 739 74 q 792 74 840 99 q 885 121 965 181 q 984 195 1002 209 q 1017 222 1029 253 q 1046 298 1062 298 q 1101 298 1101 260 z"},"3":{"x_min":0,"x_max":825,"ha":825,"o":"m 333 -24 q 285 -24 207 -7 q 122 12 86 34 q 61 49 61 62 q 61 81 65 84 q 68 87 86 87 q 107 87 121 80 q 134 72 149 64 q 179 50 236 50 q 289 50 327 100 q 366 150 364 218 q 362 302 289 324 q 246 337 226 337 q 199 337 199 373 q 199 378 240 396 q 289 418 315 444 q 356 484 357 543 q 357 589 322 612 q 290 632 232 632 q 205 631 174 608 q 142 584 127 584 q 104 584 104 610 q 104 630 145 664 q 175 688 205 705 q 240 724 298 739 q 356 755 395 755 q 511 755 584 714 q 662 669 662 590 q 662 490 561 417 q 630 416 685 369 q 743 319 743 251 q 743 105 604 33 q 494 -24 333 -24 z"},";":{"x_min":0,"x_max":413,"ha":413,"o":"m 96 506 q 96 548 126 578 q 157 608 200 608 q 243 608 273 578 q 304 548 304 506 q 304 463 273 433 q 243 403 200 403 q 157 403 126 433 q 96 463 96 506 z m 337 5 q 337 -50 294 -106 q 248 -167 192 -167 q 153 -167 153 -125 q 153 -109 184 -93 q 215 -76 215 -42 q 215 -24 199 -24 q 192 -24 182 -25 q 171 -27 164 -27 q 127 -27 104 2 q 81 28 81 64 q 81 108 120 142 q 156 174 200 174 q 337 174 337 5 z"},"J":{"x_min":0,"x_max":1144,"ha":1144,"o":"m 1008 724 q 1008 691 954 675 q 936 669 874 661 q 851 658 842 652 q 830 643 830 619 q 830 592 835 552 q 842 495 843 485 q 855 351 855 196 q 855 -1 725 -100 q 612 -185 417 -185 q 317 -185 227 -117 q 129 -42 129 59 q 129 105 172 147 q 215 189 260 189 q 310 189 349 165 q 394 137 394 93 q 394 68 383 68 q 372 68 353 76 q 333 84 329 84 q 310 84 296 65 q 283 46 283 24 q 283 -22 315 -62 q 350 -104 393 -104 q 431 -104 450 -62 q 464 -30 464 17 q 464 25 453 167 q 441 324 440 440 q 439 466 440 509 q 440 563 440 579 q 440 634 440 638 q 436 665 377 665 q 357 665 319 667 q 280 670 261 670 q 202 670 202 713 q 202 729 217 739 q 229 748 244 748 q 272 748 328 742 q 384 737 410 737 l 644 735 q 757 734 878 744 q 938 749 972 749 q 1008 749 1008 724 z"},"V":{"x_min":0,"x_max":1220,"ha":1220,"o":"m 1124 722 q 1124 703 1121 700 q 1114 691 1083 688 q 1048 683 1029 660 q 1018 646 1005 609 q 979 538 964 502 q 891 325 758 142 q 624 -44 567 -43 q 545 -42 454 101 q 386 208 344 285 q 218 519 181 656 q 177 669 124 677 q 73 685 73 713 q 73 724 83 733 q 90 741 97 741 q 176 739 278 734 l 641 735 q 671 736 711 735 q 741 733 742 715 q 743 684 664 674 q 625 669 628 646 q 637 580 697 467 q 753 362 770 362 q 781 362 800 385 q 820 408 836 442 q 881 536 883 612 q 883 649 874 662 q 867 669 845 675 q 825 679 818 684 q 808 691 807 708 q 806 725 845 732 q 857 734 939 734 q 968 734 1031 739 q 1092 744 1092 744 q 1112 744 1116 742 q 1125 738 1124 722 z"},"\"":{"x_min":0,"x_max":506,"ha":506,"o":"m 150 753 q 182 753 198 732 q 210 717 210 698 q 210 649 198 572 q 180 456 149 456 q 122 456 103 569 q 87 665 90 693 q 93 724 114 740 q 131 753 150 753 z m 341 753 q 373 753 389 732 q 400 717 400 698 q 400 649 389 572 q 371 456 339 456 q 312 456 293 569 q 278 665 281 693 q 284 724 305 740 q 321 753 341 753 z"},"7":{"x_min":0,"x_max":825,"ha":825,"o":"m 754 708 q 754 731 723 735 q 722 735 673 735 q 635 735 531 733 q 426 731 388 731 q 365 731 319 734 q 273 736 250 736 q 199 736 188 728 q 170 715 108 523 q 104 513 95 493 q 88 476 88 473 q 88 445 105 445 q 133 445 159 510 q 165 522 189 534 q 217 548 281 549 q 204 547 377 547 q 517 547 529 545 q 548 541 548 527 q 548 519 468 429 q 369 317 319 246 q 239 132 239 65 q 239 15 312 -19 q 349 -36 428 -54 q 483 -67 514 -67 q 548 -67 547 -39 q 545 -2 545 132 q 545 213 599 343 q 612 374 700 557 q 754 669 754 708 z"},"S":{"x_min":0,"x_max":963,"ha":963,"o":"m 856 266 q 854 145 749 59 q 649 -23 526 -21 q 450 -20 340 10 q 319 20 285 30 q 272 30 266 25 q 261 20 261 7 q 263 -40 264 -30 q 261 -52 228 -52 q 212 -51 200 -17 q 116 224 116 238 q 117 267 144 267 q 157 267 189 227 q 214 190 245 148 q 326 61 495 58 q 540 57 583 64 q 648 75 648 98 q 649 126 554 153 q 488 171 446 175 q 309 189 226 270 q 143 351 145 468 q 150 758 574 750 q 634 739 742 726 q 771 726 785 764 q 793 789 827 789 q 835 789 848 782 q 860 775 860 766 q 861 756 851 726 q 847 714 801 594 q 771 513 770 491 q 770 477 792 443 q 823 397 834 372 q 857 321 856 266 z m 688 531 l 688 554 q 689 604 596 643 q 524 672 481 673 q 445 674 403 666 q 346 654 346 634 q 345 619 380 605 q 404 596 423 594 q 461 587 570 556 q 672 527 674 527 q 679 529 688 531 z"},"}":{"x_min":0,"x_max":686,"ha":686,"o":"m 417 412 q 440 395 443 389 q 445 381 448 373 q 452 362 457 362 q 461 362 467 369 q 472 375 472 379 q 472 382 461 397 q 450 413 447 416 q 444 419 431 431 q 479 503 479 597 q 479 694 425 770 q 426 769 479 729 q 510 705 542 705 q 562 705 598 720 q 640 737 640 754 q 640 756 632 758 q 618 760 603 761 q 586 763 575 772 q 574 773 552 803 q 538 822 519 822 q 500 822 475 807 q 450 792 438 792 q 426 792 398 801 q 366 830 331 839 q 306 845 253 845 q 170 845 170 831 q 170 813 188 813 q 205 813 239 815 q 273 816 290 816 q 339 816 377 781 q 374 781 368 777 q 356 770 297 767 q 257 765 240 743 q 232 733 216 686 q 208 664 184 661 q 161 658 161 650 q 161 638 200 630 q 228 625 249 625 q 317 625 350 666 q 374 697 387 771 q 439 714 447 624 l 444 629 q 435 610 412 574 q 403 565 395 557 q 382 544 382 537 q 382 522 393 522 q 420 522 447 582 q 441 499 396 435 q 345 361 267 361 q 218 361 188 389 q 156 417 156 464 q 156 498 178 519 q 201 541 235 541 q 252 541 266 530 q 280 520 280 503 q 280 469 264 459 q 257 455 234 453 q 218 452 218 439 q 218 427 239 427 q 269 427 288 447 q 308 468 308 498 q 308 532 284 551 q 263 568 228 568 q 129 568 129 453 q 129 404 167 369 q 205 333 253 333 q 353 333 417 412 z m 129 192 q 129 76 228 76 q 263 76 284 94 q 308 113 308 147 q 308 177 288 198 q 269 218 239 218 q 218 218 218 206 q 218 193 234 192 q 257 190 264 186 q 280 176 280 142 q 280 125 266 115 q 252 104 235 104 q 201 104 178 126 q 156 147 156 181 q 156 228 188 256 q 218 284 267 284 q 345 284 396 210 q 441 146 447 63 q 420 123 393 123 q 382 123 382 108 q 382 101 395 88 q 403 80 412 71 q 422 58 444 16 l 447 21 q 439 -69 387 -126 q 374 -52 350 -21 q 317 21 249 21 q 228 21 200 15 q 161 7 161 -5 q 161 -13 184 -16 q 208 -19 216 -41 q 232 -88 240 -98 q 257 -120 297 -122 q 315 -123 334 -124 q 357 -125 368 -132 q 374 -136 377 -136 q 339 -171 290 -171 q 273 -171 239 -170 q 205 -168 188 -168 q 170 -168 170 -186 q 170 -200 253 -200 q 306 -200 331 -194 q 366 -185 398 -156 q 426 -147 438 -147 q 450 -147 475 -162 q 500 -177 519 -177 q 538 -177 552 -158 q 574 -128 575 -127 q 586 -118 603 -116 q 618 -115 632 -113 q 640 -111 640 -109 q 640 -92 598 -75 q 562 -60 542 -60 q 510 -60 479 -84 q 426 -124 425 -125 q 479 -49 479 48 q 479 188 386 266 q 413 285 419 285 q 424 285 432 295 q 440 305 439 307 q 426 319 423 318 q 409 315 388 295 q 382 290 365 280 q 315 312 253 312 q 205 312 167 276 q 129 241 129 192 z"},"Z":{"x_min":0,"x_max":1250,"ha":1250,"o":"m 1162 251 q 1164 220 1107 14 q 1102 -5 1067 -5 q 1063 -5 1011 -3 q 958 -1 954 -1 q 839 -1 549 -4 q 290 -7 145 -6 q 105 -6 105 20 q 105 34 202 150 q 302 283 390 396 q 467 494 544 592 q 575 632 575 647 q 574 664 513 665 q 458 666 392 649 q 321 631 274 601 q 228 570 224 540 q 220 504 214 495 q 207 480 183 482 q 146 484 146 711 q 146 729 167 735 q 186 741 235 743 q 270 744 311 744 q 380 744 502 739 q 641 733 687 732 q 759 731 892 740 q 1036 750 1096 750 q 1124 750 1132 740 q 1136 736 1137 720 q 1140 692 1047 573 l 700 126 q 687 110 687 97 q 687 80 764 79 q 804 78 878 103 q 944 125 958 136 q 1012 179 1016 183 q 1051 213 1065 236 q 1077 256 1089 275 q 1104 296 1119 296 q 1160 295 1162 251 z"},"x":{"x_min":0,"x_max":1272,"ha":1272,"o":""},")":{"x_min":0,"x_max":781,"ha":781,"o":"m 208 830 q 383 830 501 672 q 616 519 616 303 q 616 91 518 -54 q 411 -210 234 -210 q 119 -210 119 -174 q 119 -150 140 -144 q 148 -141 174 -141 q 238 -141 274 20 q 303 150 303 311 q 303 443 272 588 q 235 759 184 759 q 143 759 133 762 q 112 768 112 794 q 112 813 152 823 q 180 830 208 830 z"},"&":{"x_min":0,"x_max":1328,"ha":1328,"o":"m 1238 577 q 1238 472 1139 452 q 1053 435 1053 417 q 1053 401 1061 375 q 1069 350 1069 333 q 1069 147 894 54 q 755 -20 552 -20 q 397 -20 265 61 q 111 154 111 298 q 111 386 183 447 q 233 489 304 509 q 284 521 266 554 q 248 587 248 612 q 248 682 313 726 q 372 764 445 764 q 500 764 538 742 q 580 719 580 682 q 580 645 577 633 q 570 603 546 603 q 536 603 532 620 q 528 644 520 652 q 504 670 465 670 q 408 670 407 602 q 407 574 434 554 q 458 535 487 535 q 497 535 517 536 q 536 537 546 537 q 586 537 586 505 q 586 491 563 468 q 530 436 521 423 q 499 392 499 354 q 499 237 570 171 q 638 108 753 108 q 838 108 894 154 q 955 203 955 286 q 955 350 928 391 q 896 440 835 440 q 805 440 777 428 q 740 414 740 389 q 740 372 765 365 q 789 358 789 342 q 789 319 766 307 q 748 297 723 297 q 684 297 654 342 q 627 383 627 424 q 627 506 680 558 q 732 611 813 611 q 853 611 938 595 q 1022 579 1067 579 q 1142 579 1142 623 q 1142 629 1131 647 q 1121 665 1121 671 q 1121 677 1132 687 q 1144 697 1150 697 q 1194 697 1218 657 q 1238 624 1238 577 z"},"_":{"x_min":0,"x_max":500,"ha":500,"o":"m -9 -152 l 509 -152 l 509 -216 l -9 -216 z"},"v":{"x_min":0,"x_max":1220,"ha":1220,"o":""},"O":{"x_min":0,"x_max":1237,"ha":1237,"o":"m 1100 360 q 1100 149 924 52 q 786 -25 557 -25 q 361 -25 234 76 q 97 187 97 378 q 97 572 255 669 q 387 750 593 750 q 807 750 941 665 q 1100 562 1100 360 z m 609 675 q 562 675 537 555 q 519 472 519 395 q 519 292 534 194 q 558 44 606 44 q 700 44 700 346 q 700 675 609 675 z"},"(":{"x_min":0,"x_max":781,"ha":781,"o":"m 521 830 q 345 830 227 672 q 112 519 112 303 q 112 91 210 -54 q 317 -210 494 -210 q 609 -210 609 -174 q 609 -150 588 -144 q 580 -141 554 -141 q 490 -141 454 20 q 425 150 425 311 q 425 443 456 588 q 493 759 544 759 q 585 759 595 762 q 616 768 616 794 q 616 813 576 823 q 548 830 521 830 z"},"C":{"x_min":0,"x_max":986,"ha":986,"o":"m 850 231 q 850 191 830 147 q 755 -20 541 -22 q 128 -27 128 390 q 128 562 257 659 q 375 748 552 748 q 610 748 691 727 q 757 710 762 710 q 788 710 795 739 q 803 767 825 767 q 854 767 854 702 q 854 654 834 552 q 811 430 787 430 q 761 430 761 450 q 761 455 763 465 q 766 475 766 479 q 766 540 732 598 q 692 666 637 666 q 601 666 580 584 q 565 524 565 471 q 565 80 648 80 q 696 80 733 128 q 750 150 785 218 q 809 266 825 266 q 850 266 850 231 z"},"W":{"x_min":0,"x_max":1714,"ha":1714,"o":"m 1628 729 q 1628 718 1598 698 q 1562 673 1557 666 q 1538 640 1519 587 q 1492 515 1487 504 q 1442 407 1301 206 q 1138 -29 1085 -29 q 1065 -29 964 127 q 857 293 842 305 q 767 213 691 121 q 562 -34 524 -34 q 509 -34 403 154 q 329 284 251 479 q 250 481 222 572 q 200 641 188 654 q 175 668 126 685 q 89 699 89 720 q 89 748 118 748 q 150 748 209 742 q 272 737 300 736 l 440 734 q 457 733 486 736 q 519 739 533 739 q 557 740 606 750 q 654 761 678 761 q 690 761 700 753 q 710 744 710 732 q 710 709 666 693 q 632 684 599 675 q 609 638 637 638 q 643 638 712 647 q 855 667 939 683 q 1017 698 1151 738 q 1180 749 1208 759 q 1245 772 1266 772 q 1285 772 1285 738 q 1285 712 1252 697 q 1251 696 1191 676 q 1159 666 1159 650 q 1159 610 1214 487 q 1273 357 1303 357 q 1332 357 1378 463 q 1420 561 1420 600 q 1420 631 1408 641 q 1397 650 1366 650 q 1362 650 1355 648 q 1347 647 1343 647 q 1301 647 1301 678 q 1301 700 1375 714 q 1422 721 1469 728 q 1479 730 1537 750 q 1589 767 1595 767 q 1628 767 1628 729 z m 811 406 q 811 412 788 475 q 764 539 762 561 q 744 574 688 574 q 649 574 640 562 q 668 501 697 441 q 746 345 765 345 q 777 345 794 370 q 811 394 811 406 z"},"A":{"x_min":0,"x_max":1301,"ha":1301,"o":"m 1220 27 q 1220 -12 1178 -12 q 1129 -12 1031 -6 q 933 0 883 0 q 831 0 726 -4 q 621 -8 569 -8 q 518 -8 518 16 q 518 37 550 44 q 580 50 609 56 q 642 65 642 91 q 643 140 582 154 q 554 161 476 160 l 377 159 q 331 159 331 102 q 331 88 335 60 q 339 32 339 19 q 339 -5 299 -5 q 275 -5 193 43 q 108 92 108 111 q 108 143 136 143 q 155 143 172 133 q 181 128 197 114 q 210 104 215 104 q 247 104 274 172 q 328 305 449 492 q 482 542 569 645 q 671 765 696 765 q 727 765 815 644 q 887 544 918 486 q 959 406 1013 266 q 1029 212 1046 159 q 1070 83 1092 67 q 1099 62 1165 55 q 1220 49 1220 27 z m 560 292 q 498 385 478 385 q 459 385 421 320 q 383 257 383 235 q 383 221 442 219 q 478 220 514 221 q 526 220 538 219 q 561 217 574 219 q 592 221 592 229 q 590 247 560 292 z"},"f":{"x_min":0,"x_max":1203,"ha":1203,"o":""},"Q":{"x_min":0,"x_max":964,"ha":964,"o":"m 920 27 q 916 -60 854 -109 q 801 -152 729 -150 q 606 -147 479 -98 q 403 -68 299 -8 q 216 41 198 41 q 167 42 140 29 q 104 12 103 -21 q 103 -25 110 -45 q 116 -64 116 -68 q 116 -88 114 -95 q 110 -112 95 -112 q 71 -113 57 -76 q 45 -49 46 -33 q 50 112 191 108 q 207 108 276 85 q 345 62 381 61 q 433 60 490 100 q 545 139 559 182 q 524 169 463 171 q 318 175 222 250 q 114 336 118 479 q 122 625 260 700 q 364 756 485 753 q 624 750 713 662 q 803 573 800 437 q 796 298 711 188 q 618 69 452 18 q 455 14 497 0 q 542 -14 557 -15 q 564 -15 605 -19 q 668 -21 714 -8 q 808 16 809 90 q 810 115 781 134 q 753 152 753 165 q 754 185 772 187 q 769 187 792 186 q 857 184 894 127 q 922 81 920 27 z m 657 457 q 656 538 631 600 q 604 666 566 667 q 530 667 518 563 q 515 537 513 450 q 512 418 527 354 q 548 266 581 265 q 612 264 636 328 q 657 387 657 457 z"},"w":{"x_min":0,"x_max":1714,"ha":1714,"o":""},"-":{"x_min":0,"x_max":492,"ha":492,"o":""},"E":{"x_min":0,"x_max":1183,"ha":1183,"o":"m 1054 259 q 1054 201 1043 139 q 1030 79 1018 20 q 1012 -7 936 -7 q 895 -7 776 -4 q 658 -1 616 -1 q 368 -1 214 -9 l 105 -14 q 94 -14 84 -3 q 75 6 76 15 q 76 35 97 42 q 106 45 135 46 q 154 46 201 47 q 272 50 270 118 q 269 141 262 243 q 256 325 256 396 q 256 397 260 498 q 263 598 263 612 q 263 648 224 670 q 211 677 126 687 q 58 695 58 716 q 58 744 85 744 q 74 744 202 739 q 333 734 478 734 q 682 734 785 740 q 888 745 969 745 q 1004 745 1013 700 q 1015 687 1015 629 q 1015 586 999 515 q 992 485 970 483 q 959 482 950 490 q 941 498 941 512 q 940 531 935 543 q 907 607 828 638 q 767 663 693 663 q 684 663 677 656 q 670 648 670 641 q 670 612 672 577 q 675 506 675 471 q 675 440 708 440 q 712 440 744 444 q 776 448 780 448 q 828 448 866 435 q 894 426 895 371 q 896 335 875 249 q 866 212 847 212 q 827 212 826 229 q 826 234 827 245 q 827 257 827 262 q 827 298 792 338 q 751 383 698 383 q 691 383 679 370 q 679 314 672 198 q 665 83 665 87 q 665 64 686 64 q 761 64 876 142 q 954 194 988 237 q 998 249 1003 271 q 1009 294 1027 294 q 1041 294 1048 279 q 1054 269 1054 259 z"},"s":{"x_min":0,"x_max":963,"ha":963,"o":""},">":{"x_min":0,"x_max":825,"ha":825,"o":"m 625 321 q 624 310 587 285 q 519 238 512 233 q 305 74 285 74 q 274 74 273 87 q 274 78 274 125 q 274 136 311 164 q 348 192 488 290 q 409 365 307 459 q 291 472 287 487 q 284 496 284 522 q 284 578 284 573 q 287 601 307 600 q 319 600 405 521 q 556 383 562 377 q 568 371 606 344 q 626 329 625 321 z"},"l":{"x_min":0,"x_max":1183,"ha":1183,"o":""},"8":{"x_min":0,"x_max":825,"ha":825,"o":"m 411 111 q 411 85 401 66 q 388 43 364 44 q 300 46 258 85 q 210 131 210 213 q 210 244 224 265 q 227 269 249 292 q 300 257 349 208 q 411 145 411 111 z m 208 349 q 99 279 99 192 q 99 82 188 25 q 262 -22 379 -25 q 512 -28 604 32 q 704 98 704 213 q 704 301 647 372 q 635 386 561 451 q 653 496 653 583 q 653 672 564 717 q 496 753 398 753 q 281 753 203 693 q 121 629 121 540 q 121 486 151 424 q 179 368 208 349 z m 431 686 q 476 686 509 654 q 541 621 542 574 q 543 544 537 528 q 532 515 512 491 q 450 532 429 550 q 381 592 381 632 q 381 686 431 686 z"},"\\":{"x_min":0,"x_max":682,"ha":682,"o":"m 454 -54 l 150 771 l 188 784 l 492 -41 z"},"e":{"x_min":0,"x_max":1183,"ha":1183,"o":""},"b":{"x_min":0,"x_max":1164,"ha":1164,"o":""},"%":{"x_min":0,"x_max":682,"ha":682,"o":"m 335 601 q 335 537 292 491 q 248 446 187 446 q 125 446 82 491 q 38 537 38 601 q 38 665 82 710 q 125 756 187 756 q 248 756 292 710 q 335 665 335 601 z m 238 601 q 238 644 223 674 q 208 704 188 704 q 167 704 153 674 q 138 644 138 601 q 138 559 153 529 q 167 499 188 499 q 208 499 223 529 q 238 559 238 601 z m 629 131 q 629 67 586 21 q 542 -24 481 -24 q 419 -24 376 21 q 333 67 333 131 q 333 195 376 241 q 419 286 481 286 q 542 286 586 241 q 629 195 629 131 z m 533 131 q 533 173 518 203 q 503 233 482 233 q 462 233 447 203 q 433 173 433 131 q 433 88 447 58 q 462 28 482 28 q 503 28 518 58 q 533 88 533 131 z m 119 -25 l 84 -5 l 528 755 l 563 735 z"},"m":{"x_min":0,"x_max":1686,"ha":1686,"o":""},"#":{"x_min":0,"x_max":942,"ha":942,"o":"m 380 442 l 351 273 l 587 273 l 618 442 z m 431 726 l 398 540 l 635 540 l 669 726 l 699 726 l 666 540 l 750 540 q 762 540 784 542 q 807 544 818 544 q 842 544 842 526 q 842 517 835 503 q 830 492 825 481 q 813 453 803 447 q 794 442 761 442 l 648 442 l 619 273 l 747 273 q 758 273 781 275 q 803 277 814 277 q 838 277 838 260 q 838 250 832 236 q 826 226 821 214 q 810 186 799 180 q 790 175 757 175 l 602 175 l 566 -24 l 533 -24 l 569 175 l 333 175 l 298 -24 l 262 -24 l 298 175 l 227 175 q 218 175 201 173 q 185 172 176 172 q 150 172 147 172 q 130 175 130 189 q 130 195 147 235 q 163 273 214 273 l 316 273 l 347 442 l 231 442 q 222 442 205 440 q 188 439 179 439 q 153 439 151 439 q 133 442 133 457 q 133 467 153 506 q 169 540 218 540 l 365 540 l 399 726 z"},",":{"x_min":0,"x_max":413,"ha":413,"o":"m 337 5 q 337 -50 294 -106 q 248 -167 192 -167 q 153 -167 153 -125 q 153 -109 184 -93 q 215 -76 215 -42 q 215 -24 199 -24 q 192 -24 182 -25 q 171 -27 164 -27 q 127 -27 104 2 q 81 28 81 64 q 81 108 120 142 q 156 174 200 174 q 337 174 337 5 z"},"n":{"x_min":0,"x_max":1165,"ha":1165,"o":""},"h":{"x_min":0,"x_max":1541,"ha":1541,"o":""},"z":{"x_min":0,"x_max":1250,"ha":1250,"o":""},"B":{"x_min":0,"x_max":1164,"ha":1164,"o":"m 1052 207 q 1052 110 953 50 q 866 -2 763 -2 l 681 -2 q 641 -2 576 0 q 505 1 471 1 q 428 1 342 0 q 256 -1 213 -1 q 121 -1 121 37 q 121 73 154 73 q 172 73 208 71 q 243 68 261 68 q 287 68 287 108 l 287 379 q 287 421 292 503 q 297 586 297 627 q 297 644 287 659 q 276 675 262 675 q 240 675 201 673 q 162 671 140 671 q 113 671 114 700 q 116 730 293 738 q 347 740 516 740 q 688 740 801 709 q 987 659 987 535 q 987 465 917 397 q 1052 310 1052 207 z m 842 511 q 842 562 802 609 q 760 658 708 658 q 682 658 682 617 q 682 564 689 505 q 700 419 719 415 q 725 413 740 413 q 802 413 822 431 q 842 450 842 511 z m 887 203 q 887 261 846 308 q 804 356 747 356 q 710 356 700 333 q 695 321 695 278 q 695 260 694 222 q 693 185 693 167 q 693 66 731 66 q 887 66 887 203 z"},"K":{"x_min":0,"x_max":1484,"ha":1484,"o":"m 1394 39 q 1394 25 1385 14 q 1374 0 1358 0 l 878 0 q 842 0 803 58 q 751 133 665 220 q 649 189 649 119 q 649 77 668 65 q 680 58 738 50 q 780 44 780 19 q 780 -8 751 -8 q 746 -8 594 -4 q 440 -1 438 -1 q 354 0 286 -3 q 208 -8 138 -8 q 102 -8 102 13 q 102 39 135 44 q 189 52 211 57 q 248 66 257 73 q 269 82 269 108 q 269 117 260 181 q 251 245 251 331 l 251 641 q 246 674 204 674 q 202 674 120 682 q 81 686 81 724 q 81 747 126 747 q 130 747 224 743 q 317 738 322 738 l 545 737 q 550 737 652 744 q 754 751 758 751 q 766 751 776 746 q 786 740 785 733 q 784 714 777 706 q 767 693 730 684 q 699 678 668 672 q 637 664 637 640 q 637 640 643 583 q 649 527 649 463 l 649 331 q 649 315 665 315 q 680 315 784 408 q 879 492 926 541 q 973 589 981 599 q 1015 641 1014 668 q 1013 693 980 693 q 957 693 935 694 q 912 697 912 716 q 912 743 992 743 q 1006 743 1022 742 q 1038 741 1037 741 q 1169 744 1239 751 q 1304 759 1306 759 q 1337 759 1337 730 q 1337 712 1288 700 q 1265 696 1243 691 q 1204 681 1163 653 q 1125 627 1055 553 q 990 484 990 479 q 990 479 1074 359 q 1153 248 1175 217 q 1238 134 1270 109 q 1310 78 1365 66 q 1394 61 1394 39 z"},"R":{"x_min":0,"x_max":1380,"ha":1380,"o":"m 1319 14 q 1320 4 1298 -3 q 1281 -9 1270 -9 q 1234 -8 1163 -4 q 1091 0 1056 0 q 1052 0 1012 -1 q 968 -4 949 -4 q 917 -5 904 42 q 894 91 883 140 q 864 211 833 255 q 792 313 722 332 q 727 238 726 209 q 725 180 718 143 q 713 119 708 95 q 704 69 734 69 q 763 64 800 59 q 833 54 845 48 q 864 39 865 16 q 865 2 851 -6 q 839 -12 827 -12 q 789 -8 464 0 q 412 1 369 1 q 266 1 217 -4 q 167 -10 167 -10 q 155 -10 144 -1 q 133 7 133 19 q 133 44 174 51 q 228 60 265 69 q 295 76 307 87 q 321 100 322 131 q 323 180 318 243 q 315 288 312 333 q 312 356 312 380 q 312 440 319 518 q 327 595 327 606 q 326 645 319 658 q 309 678 275 678 q 272 678 237 676 q 205 675 200 675 q 165 676 161 678 q 147 683 148 706 q 148 734 212 734 q 229 734 250 731 q 298 730 395 733 q 491 736 538 735 q 719 732 745 730 q 875 719 942 676 q 1030 620 1028 506 q 1027 467 988 429 q 974 415 931 385 q 1097 263 1198 106 q 1209 88 1294 58 q 1317 49 1319 14 z m 891 485 q 893 587 775 649 q 749 663 726 663 q 703 663 703 636 q 711 560 717 421 q 750 411 831 409 q 890 408 891 485 z"},"T":{"x_min":0,"x_max":1313,"ha":1313,"o":"m 1234 498 q 1234 481 1219 468 q 1204 455 1188 456 q 1167 456 1156 493 q 1149 520 1138 534 q 1130 543 1099 569 q 1058 605 1002 629 q 947 652 906 653 q 874 654 873 617 q 880 533 886 369 q 885 317 876 209 q 869 118 870 102 q 874 65 945 63 q 970 63 1050 47 q 1092 39 1092 4 q 1092 -19 1042 -19 q 1037 -19 984 -16 q 929 -12 925 -12 q 915 -12 817 -6 q 729 -1 708 -1 q 624 -3 452 -13 q 297 -22 282 -22 q 250 -21 251 6 q 251 31 297 40 q 338 43 412 53 q 461 62 462 89 q 462 121 456 211 q 448 306 448 337 q 448 406 455 478 q 462 561 463 589 q 465 650 431 651 q 361 653 273 612 q 222 589 195 556 q 178 536 169 492 q 163 460 131 461 q 92 461 94 535 l 97 637 q 99 704 122 721 q 146 739 239 739 q 229 739 424 735 q 590 732 737 734 q 827 736 1009 741 q 1172 745 1173 745 q 1212 744 1221 708 q 1223 700 1233 565 z"},"P":{"x_min":0,"x_max":1108,"ha":1108,"o":"m 683 188 q 683 168 681 136 q 680 103 680 83 q 680 64 727 57 q 769 53 811 48 q 847 43 857 40 q 877 32 877 13 q 877 -10 844 -10 q 830 -10 641 -2 q 593 0 511 0 q 476 0 406 -1 q 337 -1 302 -1 q 273 -1 212 -8 q 151 -14 122 -14 q 92 -14 92 15 q 92 34 151 47 q 190 53 229 59 q 267 66 269 67 q 280 74 280 104 q 280 130 278 184 q 275 238 275 265 q 275 324 277 441 q 279 559 279 618 q 279 676 215 676 q 206 676 186 675 q 167 674 157 674 q 107 674 107 707 q 107 737 165 737 q 194 737 253 735 q 311 734 341 734 q 369 734 426 735 q 482 735 511 735 q 531 735 745 729 q 849 727 921 663 q 998 596 998 494 q 998 385 909 326 q 833 276 721 276 q 701 276 681 279 q 683 244 683 188 z m 845 484 q 845 549 808 605 q 766 667 704 667 q 678 666 672 662 q 667 657 667 638 q 667 617 671 574 q 676 532 676 510 q 676 491 679 451 q 682 411 682 391 q 682 382 682 364 q 682 346 682 341 q 702 335 725 335 q 784 335 816 380 q 845 420 845 484 z"},"|":{"x_min":0,"x_max":200,"ha":200,"o":"m 119 797 l 119 -216 l 79 -216 l 79 797 z"},"t":{"x_min":0,"x_max":1313,"ha":1313,"o":""},"M":{"x_min":0,"x_max":1686,"ha":1686,"o":"m 1608 14 q 1608 -8 1560 -8 q 1514 -8 1421 -4 q 1329 0 1282 0 q 1252 0 1226 -1 q 1103 -3 856 -10 q 846 -10 836 -5 q 824 1 824 10 q 824 34 847 42 q 854 44 890 48 q 897 49 965 56 q 979 58 993 67 q 1011 79 1011 95 q 1011 125 991 262 q 983 313 978 313 q 968 313 844 149 q 721 -16 704 -16 q 684 -16 543 141 q 402 297 384 297 q 366 297 366 274 q 366 191 409 131 q 455 66 534 52 q 576 45 576 19 q 576 -6 531 -6 q 499 -6 434 -3 q 369 0 337 0 q 307 0 243 -8 q 179 -17 149 -17 q 107 -17 107 10 q 107 32 149 42 q 188 48 243 64 q 270 79 284 250 q 294 367 294 465 q 294 673 206 673 q 193 673 169 675 q 146 677 133 677 q 123 677 108 687 q 94 696 94 706 q 94 741 143 744 q 181 747 246 744 q 327 740 351 740 q 372 740 415 741 q 458 743 479 743 q 495 743 502 742 q 546 739 640 637 q 700 570 794 447 q 871 346 874 346 q 886 346 932 406 q 958 443 984 479 q 990 487 1138 678 q 1186 740 1232 740 q 1253 740 1295 739 q 1337 738 1358 738 q 1391 738 1457 742 q 1523 746 1557 746 q 1567 746 1579 739 q 1592 731 1592 722 q 1592 689 1561 684 q 1511 682 1461 679 q 1402 674 1405 628 q 1424 329 1424 298 q 1424 270 1419 200 q 1415 141 1417 102 q 1418 73 1472 60 q 1478 59 1572 45 q 1593 42 1599 38 q 1608 32 1608 14 z"},"g":{"x_min":0,"x_max":1185,"ha":1185,"o":"m 1079 429 q 1079 413 1064 403 q 1041 389 1035 382 q 1020 362 1020 321 q 1020 276 1037 187 q 1054 98 1054 53 q 1054 2 1022 2 q 1002 2 993 17 q 989 24 983 49 q 977 75 941 74 q 887 51 814 21 q 697 -19 595 -19 q 349 -19 228 67 q 89 167 89 395 q 89 563 234 664 q 362 751 536 751 q 716 751 847 697 q 857 717 868 737 q 882 758 907 758 q 941 758 941 729 q 941 713 895 594 q 849 475 849 445 q 849 427 866 427 q 896 427 954 447 q 1012 466 1041 466 q 1079 466 1079 429 z m 781 439 q 781 505 734 585 q 683 676 622 676 q 587 676 562 575 q 543 496 543 443 q 543 432 546 408 q 548 385 548 375 q 550 374 555 372 q 559 370 562 370 q 604 370 684 390 q 781 414 781 439 z m 700 144 q 700 167 678 234 q 655 305 641 315 q 626 325 594 325 q 550 325 550 325 q 547 312 547 307 q 547 244 570 166 q 601 65 647 65 q 700 65 700 144 z"},"j":{"x_min":0,"x_max":1144,"ha":1144,"o":""},"i":{"x_min":0,"x_max":1011,"ha":1011,"o":""},"y":{"x_min":0,"x_max":1321,"ha":1321,"o":""},"@":{"x_min":0,"x_max":1037,"ha":1037,"o":"m 573 -221 q 337 -221 191 -111 q 29 12 29 240 q 29 464 188 608 q 341 748 567 748 q 741 748 876 643 q 1021 530 1021 361 q 1021 220 928 111 q 829 -3 690 -3 q 617 -3 587 48 q 520 -2 446 -2 q 361 -2 308 71 q 260 138 260 227 q 260 340 333 439 q 414 548 523 548 q 565 548 588 537 q 613 525 638 492 q 642 522 653 532 q 664 542 694 542 q 758 542 758 493 q 758 487 757 481 l 712 207 q 699 130 699 121 q 699 98 724 98 q 746 98 786 126 q 838 163 866 231 q 891 292 891 363 q 891 499 793 580 q 701 657 563 657 q 387 657 271 539 q 156 421 156 245 q 156 64 277 -33 q 389 -122 574 -122 q 747 -122 863 -23 q 880 -3 916 34 q 938 55 969 55 q 985 55 997 42 q 1009 29 1009 13 q 1009 -9 984 -45 q 964 -74 942 -95 q 875 -157 770 -190 q 674 -221 573 -221 z m 557 458 q 492 458 441 350 q 398 258 398 185 q 398 90 474 90 q 524 90 569 212 q 608 315 608 378 q 608 408 597 430 q 584 458 557 458 z"},".":{"x_min":0,"x_max":413,"ha":413,"o":"m 96 76 q 96 118 126 148 q 157 178 200 178 q 243 178 273 148 q 304 118 304 76 q 304 33 273 3 q 243 -27 200 -27 q 157 -27 126 3 q 96 33 96 76 z"},"p":{"x_min":0,"x_max":1108,"ha":1108,"o":""},"X":{"x_min":0,"x_max":1272,"ha":1272,"o":"m 1200 24 q 1200 -7 1161 -7 q 1127 -7 1064 -4 q 995 -1 966 -1 q 890 0 764 0 q 726 0 650 -2 q 574 -5 536 -5 q 499 -5 499 22 q 499 46 531 51 q 572 57 585 71 q 586 72 586 73 q 586 94 550 146 q 512 200 492 200 q 469 200 425 153 q 381 105 381 83 q 381 55 447 51 q 471 49 471 25 q 471 -6 419 -6 q 411 -6 397 -5 q 383 -4 379 -4 q 357 -4 312 -5 q 266 -6 244 -6 q 224 -6 184 -9 q 144 -12 124 -12 q 85 -12 85 18 q 85 34 104 45 q 117 53 145 60 q 174 66 187 73 q 217 89 328 172 q 444 260 444 273 q 444 279 373 396 q 313 495 237 637 q 215 677 169 689 q 110 704 110 718 q 110 747 138 747 q 167 747 216 745 q 274 743 294 742 q 488 738 600 738 q 621 738 664 742 q 707 746 728 746 q 759 746 759 722 q 759 705 727 691 q 694 678 694 666 q 694 654 727 608 q 760 561 771 561 q 789 561 822 604 q 855 645 855 663 q 855 687 822 691 q 801 693 794 697 q 781 703 781 722 q 781 739 834 739 l 912 739 q 940 739 982 743 q 1031 747 1052 747 q 1064 748 1100 752 q 1132 756 1146 756 q 1159 756 1168 747 q 1177 738 1177 726 q 1177 703 1149 693 q 1145 691 1102 684 q 1068 677 1037 657 q 1003 635 917 568 q 819 491 818 479 q 842 438 893 358 q 918 318 966 228 q 1011 142 1040 99 q 1048 88 1127 69 q 1200 51 1200 24 z"},"*":{"x_min":0,"x_max":709,"ha":709,"o":"m 342 854 l 448 751 l 333 645 l 218 754 z m 364 621 l 464 721 l 554 637 l 458 544 z m 333 603 l 442 496 l 338 382 l 228 496 z m 309 627 l 206 537 l 115 624 l 208 718 z"},"Y":{"x_min":0,"x_max":1321,"ha":1321,"o":"m 1181 717 q 1181 701 1146 687 q 1122 677 1098 667 q 1077 654 1042 602 q 988 522 934 443 q 869 348 832 280 q 831 264 827 202 q 824 161 824 127 q 824 106 826 98 q 832 74 881 64 q 924 56 968 48 q 1014 36 1014 5 q 1014 -4 999 -10 q 986 -16 976 -16 q 960 -16 933 -13 q 900 -10 890 -10 q 698 -1 591 -1 q 504 -1 413 -8 q 315 -16 306 -16 q 271 -16 271 17 q 271 42 317 50 q 360 57 404 63 q 450 76 450 110 q 450 128 449 167 q 449 205 449 224 q 449 263 448 279 q 447 287 371 435 q 299 577 281 607 q 253 655 224 664 q 193 669 163 675 q 124 685 124 714 q 124 723 137 732 q 150 741 159 741 q 192 741 258 737 q 323 733 356 733 q 392 733 463 734 q 534 735 569 735 q 597 735 651 738 q 706 741 733 741 q 779 741 779 712 q 779 687 717 672 q 692 667 692 661 q 692 659 703 633 q 792 431 811 431 q 845 431 881 522 q 914 603 914 646 q 914 676 867 681 q 820 686 820 710 q 820 740 870 740 q 889 740 926 738 q 962 736 981 736 q 1039 736 1077 738 q 1142 741 1141 741 q 1181 741 1181 717 z"},"c":{"x_min":0,"x_max":986,"ha":986,"o":""},"!":{"x_min":0,"x_max":546,"ha":546,"o":"m 167 76 q 167 118 198 148 q 229 178 271 178 q 313 178 344 148 q 375 118 375 76 q 375 33 344 3 q 313 -27 271 -27 q 229 -27 198 3 q 167 33 167 76 z m 266 235 q 305 235 324 266 q 331 277 349 332 q 419 544 419 591 q 419 754 278 754 q 193 754 157 719 q 120 683 120 599 q 120 507 187 332 q 207 279 213 269 q 233 235 266 235 z"},"/":{"x_min":0,"x_max":682,"ha":682,"o":"m 116 -25 l 82 -5 l 526 755 l 561 735 z"},"[":{"x_min":0,"x_max":686,"ha":686,"o":"m 373 808 q 435 808 627 847 q 612 792 539 763 q 471 735 373 735 q 275 735 220 744 q 287 495 287 327 q 287 159 235 -96 q 302 -76 379 -76 q 395 -76 411 -77 q 480 -82 549 -106 q 643 -140 638 -190 q 601 -180 565 -172 q 479 -154 414 -153 q 281 -152 129 -183 q 153 -102 171 43 q 188 180 187 268 q 155 249 128 249 q 39 249 39 327 q 39 384 67 404 q 87 418 128 418 q 159 418 187 400 q 179 482 163 618 q 155 667 123 827 q 170 820 218 814 q 273 808 373 808 z"},"6":{"x_min":0,"x_max":825,"ha":825,"o":"m 400 433 q 446 433 479 291 q 504 181 504 108 q 505 59 467 58 q 420 58 385 201 q 356 314 356 382 q 356 401 368 416 q 381 433 400 433 z m 754 279 q 754 386 677 460 q 601 534 489 534 q 489 534 410 519 q 407 519 386 512 q 368 507 363 507 q 358 507 358 516 q 358 584 419 640 q 475 690 549 705 q 601 715 609 718 q 632 727 633 743 q 635 763 592 763 q 373 763 227 630 q 75 493 75 279 q 75 147 182 58 q 280 -24 405 -24 q 554 -24 651 55 q 754 138 754 279 z"},"r":{"x_min":0,"x_max":1380,"ha":1380,"o":""},"2":{"x_min":0,"x_max":825,"ha":825,"o":"m 376 753 q 526 753 604 707 q 698 651 698 520 q 698 412 620 333 q 568 282 449 220 l 675 220 q 707 220 735 250 q 737 252 759 282 q 772 301 782 302 q 794 303 800 293 q 805 284 804 268 q 803 254 767 163 q 754 130 706 67 q 655 0 636 0 l 71 0 q 58 0 45 7 q 31 16 31 30 q 31 44 44 54 q 51 59 85 75 q 97 81 197 158 q 267 211 316 307 q 367 405 367 494 q 367 553 331 585 q 301 612 259 612 q 201 612 170 571 q 136 525 112 525 q 76 525 81 560 q 95 673 214 722 q 288 753 376 753 z"},"{":{"x_min":0,"x_max":686,"ha":686,"o":"m 256 412 q 233 395 230 389 q 228 381 225 373 q 222 362 217 362 q 211 362 206 369 q 201 375 201 379 q 201 382 212 397 q 223 413 226 416 q 229 419 242 431 q 193 503 193 597 q 193 694 248 770 q 247 769 194 729 q 163 705 131 705 q 112 705 75 720 q 33 737 33 754 q 33 756 41 758 q 56 760 70 761 q 87 763 98 772 q 99 773 122 803 q 136 822 154 822 q 173 822 198 807 q 223 792 236 792 q 248 792 275 801 q 307 830 343 839 q 367 845 420 845 q 503 845 503 831 q 503 813 486 813 q 469 813 434 815 q 400 816 383 816 q 334 816 296 781 q 299 781 305 777 q 317 770 376 767 q 416 765 433 743 q 441 733 458 686 q 465 664 490 661 q 512 658 512 650 q 512 638 474 630 q 446 625 425 625 q 355 625 324 666 q 299 697 286 771 q 234 714 226 624 l 229 629 q 239 610 261 574 q 270 565 279 557 q 291 544 291 537 q 291 522 280 522 q 253 522 226 582 q 232 499 277 435 q 328 361 406 361 q 455 361 486 389 q 518 417 518 464 q 518 498 495 519 q 472 541 438 541 q 421 541 407 530 q 394 520 394 503 q 394 469 410 459 q 416 455 439 453 q 455 452 455 439 q 455 427 434 427 q 404 427 385 447 q 365 468 365 498 q 365 532 389 551 q 411 568 445 568 q 544 568 544 453 q 544 404 507 369 q 469 333 420 333 q 320 333 256 412 z m 544 192 q 544 76 445 76 q 411 76 389 94 q 365 113 365 147 q 365 177 385 198 q 404 218 434 218 q 455 218 455 206 q 455 193 439 192 q 416 190 410 186 q 394 176 394 142 q 394 125 407 115 q 421 104 438 104 q 472 104 495 126 q 518 147 518 181 q 518 228 486 256 q 455 284 406 284 q 328 284 277 210 q 232 146 226 63 q 253 123 280 123 q 291 123 291 108 q 291 101 279 88 q 270 80 261 71 q 251 58 229 16 l 226 21 q 234 -69 286 -126 q 299 -52 324 -21 q 355 21 425 21 q 446 21 474 15 q 512 7 512 -5 q 512 -13 490 -16 q 465 -19 458 -41 q 441 -88 433 -98 q 416 -120 376 -122 q 358 -123 339 -124 q 316 -125 305 -132 q 299 -136 296 -136 q 334 -171 383 -171 q 400 -171 434 -170 q 469 -168 486 -168 q 503 -168 503 -186 q 503 -200 420 -200 q 367 -200 343 -194 q 307 -185 275 -156 q 248 -147 236 -147 q 223 -147 198 -162 q 173 -177 154 -177 q 136 -177 122 -158 q 99 -128 98 -127 q 87 -118 70 -116 q 56 -115 41 -113 q 33 -111 33 -109 q 33 -92 75 -75 q 112 -60 131 -60 q 163 -60 194 -84 q 247 -124 248 -125 q 193 -49 193 48 q 193 188 288 266 q 260 285 254 285 q 249 285 241 295 q 233 305 234 307 q 247 319 250 318 q 264 315 285 295 q 291 290 308 280 q 358 312 420 312 q 469 312 507 276 q 544 241 544 192 z"},"9":{"x_min":0,"x_max":825,"ha":825,"o":"m 422 296 q 378 297 350 440 q 328 550 329 623 q 330 672 366 672 q 410 672 441 528 q 466 414 465 347 q 465 328 453 312 q 440 296 422 296 z m 88 456 q 86 349 158 274 q 230 199 336 197 q 337 197 412 210 q 414 211 435 217 q 452 222 457 222 q 461 222 461 213 q 460 145 402 91 q 349 42 278 29 q 229 20 220 17 q 199 9 197 -7 q 196 -27 236 -28 q 445 -31 585 98 q 731 230 735 445 q 737 576 637 667 q 544 751 426 753 q 285 756 190 679 q 90 597 88 456 z"}," ":{"x_min":0,"x_max":500,"ha":500,"o":""},"I":{"x_min":0,"x_max":1011,"ha":1011,"o":"m 904 21 q 903 -8 865 -8 q 745 -5 542 0 q 470 1 345 -2 q 194 -7 149 -8 q 140 -8 132 -4 q 120 1 120 14 q 121 33 137 40 q 143 42 177 46 q 202 48 251 53 q 316 62 316 97 q 317 147 312 240 q 307 340 307 386 q 307 435 314 612 q 315 653 296 670 q 278 685 236 686 q 208 687 172 688 q 142 688 133 696 q 123 704 124 724 q 125 745 169 744 q 256 742 343 739 q 512 735 517 735 q 768 744 847 742 q 888 742 887 719 q 887 699 862 693 q 857 691 807 687 q 753 682 734 673 q 713 662 712 634 q 712 628 719 548 q 726 466 726 407 q 726 356 720 266 q 715 166 714 124 q 713 88 725 76 q 736 63 770 62 q 774 62 806 57 q 838 52 843 52 q 905 51 904 21 z"},"H":{"x_min":0,"x_max":1541,"ha":1541,"o":"m 765 13 q 765 -7 735 -7 q 679 -6 570 -3 q 461 0 406 0 q 363 0 263 -4 q 163 -9 120 -8 q 95 -8 95 8 q 95 36 132 42 q 180 50 228 58 q 284 74 284 110 q 285 157 279 249 q 272 341 273 387 q 273 427 279 507 q 284 586 284 626 q 284 650 276 658 q 270 664 242 671 q 216 675 154 684 q 127 688 122 691 q 108 698 108 718 q 108 746 146 745 q 183 745 248 741 q 313 738 350 738 q 412 737 534 740 q 655 744 717 743 q 729 743 739 731 q 748 719 748 706 q 748 688 713 675 q 677 661 673 644 q 667 623 667 559 q 667 490 667 477 q 670 442 675 432 q 684 411 709 411 l 799 411 q 838 411 838 434 q 838 452 837 489 q 835 526 835 545 q 835 558 838 584 q 840 611 840 624 q 840 657 818 669 q 798 675 777 682 q 755 689 756 709 q 756 731 769 738 q 778 743 806 743 q 827 743 925 741 q 1026 738 1042 738 q 1102 737 1207 739 q 1313 741 1372 741 q 1417 740 1417 715 q 1417 682 1370 673 q 1327 668 1283 663 q 1236 652 1236 614 q 1235 577 1241 501 q 1247 424 1246 387 q 1246 345 1242 253 q 1239 168 1239 120 q 1239 91 1264 78 q 1289 64 1366 54 q 1419 47 1419 19 q 1419 1 1399 -3 q 1393 -4 1364 -4 q 1314 -3 1219 -2 q 1125 0 1075 0 q 1035 0 956 -4 q 877 -8 837 -8 q 776 -7 776 16 q 776 36 809 45 q 841 54 841 73 q 841 96 839 131 q 837 171 837 189 q 839 225 840 288 q 839 327 809 328 q 809 328 725 328 q 685 328 682 302 q 680 283 679 228 q 678 193 676 124 q 675 81 699 61 q 707 54 742 40 q 765 31 765 13 z"},"4":{"x_min":0,"x_max":825,"ha":825,"o":"m 41 267 q 41 196 42 188 q 43 167 65 166 l 322 166 q 334 165 335 143 q 337 78 342 15 q 345 -28 372 -28 q 399 -28 500 -9 q 608 11 618 23 q 624 30 634 152 q 635 166 644 166 q 648 166 665 165 q 683 164 693 164 q 713 164 754 268 q 793 368 793 399 q 793 419 776 419 q 766 419 746 400 q 692 348 650 347 q 637 347 637 359 q 637 370 638 399 q 639 427 639 428 q 639 477 632 563 q 625 648 625 697 q 625 710 614 729 q 602 751 589 751 q 567 751 556 738 q 533 712 530 710 q 409 619 287 527 q 121 399 61 340 q 49 329 47 326 q 42 319 42 308 q 41 301 41 267 z m 354 496 q 360 496 359 488 q 354 453 347 360 q 346 347 333 347 q 291 347 204 350 q 186 352 186 355 q 186 359 200 373 q 232 405 331 483 q 348 496 354 496 z"},"~":{"x_min":0,"x_max":852,"ha":852,"o":"m 579 100 q 657 100 712 157 q 768 214 768 298 q 768 381 698 381 q 644 381 644 334 q 644 315 651 315 q 654 315 666 327 q 679 339 695 339 q 738 339 738 293 q 738 241 694 215 q 663 196 623 196 q 586 196 552 226 q 530 246 495 292 q 458 342 441 359 q 404 395 357 418 q 313 441 287 441 q 207 441 147 384 q 84 324 84 241 q 84 156 157 156 q 177 156 193 171 q 208 186 208 205 q 208 224 201 224 q 198 224 189 211 q 180 198 164 198 q 115 198 115 246 q 115 337 218 333 q 249 332 298 277 q 371 196 385 184 q 487 100 579 100 z"},"D":{"x_min":0,"x_max":1144,"ha":1144,"o":"m 1021 365 q 1018 184 885 83 q 766 -8 597 -3 q 343 5 203 -1 q 176 -2 153 4 q 120 12 121 32 q 122 47 138 57 q 150 64 159 64 q 163 64 210 61 q 257 58 261 58 q 271 58 284 64 q 299 72 299 83 q 299 90 292 213 q 286 339 286 398 q 286 420 287 434 q 294 554 291 613 q 289 650 261 652 q 233 653 199 650 q 161 646 151 646 q 144 646 133 652 q 123 659 123 666 q 124 694 157 707 q 184 717 247 726 q 300 733 313 733 l 563 740 q 1027 731 1021 365 z m 875 365 q 875 477 839 559 q 794 661 709 663 q 686 663 685 603 q 684 543 688 479 q 693 414 692 353 q 688 177 688 144 q 690 74 716 74 q 786 73 833 174 q 875 264 875 365 z"},"^":{"x_min":0,"x_max":581,"ha":581,"o":"m 72 384 l 272 734 l 312 734 l 510 384 l 432 384 l 288 634 l 146 384 z"},"0":{"x_min":0,"x_max":825,"ha":825,"o":"m 793 367 q 793 192 690 84 q 585 -27 411 -27 q 247 -27 147 83 q 51 190 51 356 q 51 523 145 634 q 245 750 410 750 q 591 750 692 649 q 793 548 793 367 z m 422 662 q 375 662 354 541 q 341 465 341 377 q 341 285 356 196 q 380 58 430 58 q 512 58 512 298 q 512 439 503 507 q 484 662 422 662 z"},"F":{"x_min":0,"x_max":1203,"ha":1203,"o":"m 1088 642 q 1089 629 1083 535 q 1079 487 1048 484 q 1021 482 1020 517 q 1019 610 897 635 q 834 647 824 649 q 774 659 742 659 q 724 660 723 643 q 721 523 735 450 q 737 437 792 436 q 853 437 922 437 q 952 437 958 417 q 960 412 960 373 q 959 281 947 237 q 937 199 913 199 q 892 200 890 224 q 890 246 885 278 q 861 330 837 349 q 808 371 736 384 q 729 219 721 102 q 720 83 739 72 q 755 62 775 62 q 859 60 894 55 q 936 49 936 15 q 935 -10 879 -9 q 771 -6 574 -2 q 543 -2 242 -11 q 234 -11 192 -14 q 153 -16 149 -16 q 133 -16 122 -7 q 114 0 114 6 q 114 27 126 36 q 137 43 166 47 q 204 51 273 60 q 317 67 318 99 q 312 220 309 387 q 316 537 316 587 q 316 645 311 654 q 299 673 258 679 q 221 683 183 686 q 141 690 132 693 q 110 699 110 717 q 110 730 123 739 q 132 745 140 745 q 224 742 309 738 q 476 732 567 732 q 596 732 617 733 l 1018 744 q 1065 743 1080 713 q 1089 693 1088 642 z"},"`":{"x_min":0,"x_max":825,"ha":825,"o":"m 511 811 q 511 835 481 924 q 449 1019 432 1019 q 314 1019 314 993 q 314 959 383 882 q 453 804 484 804 q 487 804 492 803 q 497 803 500 803 q 511 803 511 811 z"},"k":{"x_min":0,"x_max":1484,"ha":1484,"o":""},"u":{"x_min":0,"x_max":1295,"ha":1295,"o":""},"]":{"x_min":0,"x_max":686,"ha":686,"o":"m 304 808 q 242 808 49 847 q 64 792 138 763 q 206 735 303 735 q 401 735 456 744 q 389 495 389 327 q 389 159 441 -96 q 375 -76 297 -76 q 281 -76 266 -77 q 196 -82 127 -106 q 33 -140 39 -190 q 76 -180 111 -172 q 197 -154 262 -153 q 396 -152 547 -183 q 523 -102 505 43 q 488 180 489 268 q 521 249 548 249 q 638 249 638 327 q 638 384 609 404 q 589 418 548 418 q 518 418 489 400 q 497 482 513 618 q 521 667 554 827 q 506 820 458 814 q 403 808 304 808 z"},"U":{"x_min":0,"x_max":1295,"ha":1295,"o":"m 1299 736 q 1301 705 1271 693 q 1243 687 1215 680 q 1174 668 1159 644 q 1148 626 1140 579 q 1136 551 1136 458 q 1136 269 1043 134 q 938 -19 757 -19 q 546 -19 417 75 q 272 180 263 384 q 262 405 262 426 q 262 458 266 520 q 270 582 270 612 q 270 648 231 661 q 216 666 153 672 q 109 676 96 683 q 81 691 81 715 q 81 743 129 743 q 179 743 281 739 q 382 736 433 736 q 450 736 554 737 q 627 737 675 736 q 693 736 726 737 q 762 739 777 739 q 820 739 820 716 q 820 695 795 683 q 776 674 752 673 q 682 672 682 622 q 682 591 686 530 q 690 469 690 438 q 690 418 691 377 q 692 337 692 317 q 692 247 732 189 q 776 126 842 126 q 934 126 987 219 q 1033 297 1033 397 q 1033 476 1015 552 q 990 660 940 668 q 913 671 886 674 q 851 681 851 702 q 851 740 896 740 l 1091 740 q 1122 740 1182 746 q 1243 752 1273 752 q 1284 752 1299 736 z"},"o":{"x_min":0,"x_max":1237,"ha":1237,"o":""},"N":{"x_min":0,"x_max":1165,"ha":1165,"o":"m 1081 721 q 1081 691 1040 682 q 1002 677 965 672 q 924 664 924 638 q 924 620 927 586 q 930 552 930 534 q 930 425 915 26 q 914 7 901 -11 q 888 -31 869 -31 q 833 -31 614 144 q 394 320 387 320 q 375 320 375 297 q 375 236 401 175 q 431 106 479 80 q 479 80 547 60 q 595 45 595 25 q 595 14 583 5 q 571 -4 560 -4 q 527 -4 462 -2 q 397 -1 365 -1 q 334 -1 272 -4 q 210 -7 180 -7 q 141 -7 141 15 q 141 42 193 53 q 265 67 267 69 q 286 80 292 121 q 306 215 306 351 q 306 501 285 618 q 283 631 265 648 q 248 664 235 665 q 243 665 154 665 q 140 665 125 671 q 105 679 105 690 q 105 736 174 736 q 226 736 329 737 q 433 737 484 737 q 496 737 505 735 q 536 729 679 611 q 819 495 823 495 q 836 495 836 517 q 836 554 807 597 q 780 636 746 658 q 731 668 704 673 q 672 679 661 684 q 642 692 642 712 q 642 735 678 735 q 790 734 804 734 q 853 734 930 740 q 994 746 1057 751 q 1066 751 1073 741 q 1081 730 1081 721 z"},"+":{"x_min":0,"x_max":825,"ha":825,"o":"m 460 240 q 460 228 462 206 q 464 184 464 172 q 464 148 447 148 q 437 148 423 155 q 412 160 401 166 q 373 177 367 188 q 362 196 362 229 l 362 322 l 273 322 q 265 322 248 320 q 230 319 222 319 q 196 319 193 319 q 176 322 176 336 q 176 340 193 382 q 210 421 260 421 l 362 420 l 362 498 q 362 506 360 523 q 359 540 359 549 q 359 575 359 577 q 362 595 376 595 q 381 595 421 578 q 461 561 461 510 l 460 420 l 558 420 q 569 420 592 422 q 614 424 625 424 q 649 424 649 407 q 649 397 643 383 q 638 372 632 361 q 621 333 610 327 q 602 322 568 322 l 460 322 q 460 315 460 281 q 460 255 460 240 z"},"G":{"x_min":0,"x_max":1223,"ha":1223,"o":"m 1128 361 q 1129 334 1069 328 q 1008 321 1009 294 q 1009 278 1012 246 q 1014 214 1015 198 q 1016 144 1012 119 q 1003 63 857 17 q 737 -21 659 -22 q 438 -26 300 57 q 131 156 128 363 q 122 739 639 747 q 712 748 796 725 q 880 701 875 701 q 890 702 913 728 q 937 754 956 754 q 970 755 981 749 q 994 741 993 728 q 993 719 972 658 q 937 563 896 448 q 879 401 861 401 q 842 400 837 417 q 835 434 829 466 q 818 509 793 559 q 765 617 738 641 q 702 673 653 672 q 614 672 595 545 q 582 458 583 383 q 585 297 609 194 q 643 53 696 54 q 733 55 750 101 q 763 134 762 179 q 761 218 750 250 q 735 296 706 298 q 657 300 657 301 q 627 307 626 333 q 626 343 635 351 q 645 359 654 359 q 749 360 964 384 q 1005 390 1084 397 q 1101 397 1115 388 q 1128 378 1128 361 z"},"q":{"x_min":0,"x_max":964,"ha":964,"o":""},"d":{"x_min":0,"x_max":1144,"ha":1144,"o":""},"1":{"x_min":0,"x_max":825,"ha":825,"o":"m 780 21 q 779 -8 742 -8 q 630 -5 435 0 q 364 1 257 -2 q 128 -7 80 -8 q 69 -8 61 -2 q 51 3 51 14 q 51 33 68 39 q 73 41 107 46 q 133 48 182 53 q 246 62 246 96 q 247 146 241 228 q 235 315 235 362 q 235 391 241 555 q 243 594 238 602 q 231 615 199 614 q 195 614 171 610 q 147 607 143 607 q 92 607 92 632 q 92 643 107 654 q 121 663 127 663 q 131 663 270 688 q 421 716 453 721 q 492 728 585 745 q 648 757 664 757 q 699 755 699 736 q 699 704 646 697 q 618 693 607 686 q 590 675 590 650 q 598 563 604 372 q 598 289 591 123 q 590 88 602 75 q 614 62 647 62 q 651 62 683 56 q 715 51 719 51 q 781 50 780 21 z"},"5":{"x_min":0,"x_max":825,"ha":825,"o":"m 137 356 q 138 330 170 330 q 185 330 213 341 q 242 352 266 352 q 317 352 349 313 q 379 277 379 228 q 379 158 350 99 q 315 31 262 33 q 214 34 165 63 q 115 92 111 92 q 83 92 83 59 q 83 15 171 -8 q 233 -24 296 -24 q 452 -24 561 33 q 700 107 700 255 q 700 375 615 440 q 534 502 397 502 q 342 502 280 480 q 217 459 213 459 q 208 459 208 467 q 208 473 217 508 q 224 536 227 541 q 231 545 247 545 l 578 543 q 608 543 621 574 q 628 592 658 676 q 689 765 689 770 q 689 789 670 789 q 658 789 643 774 q 632 763 621 752 q 595 730 468 730 q 423 730 349 733 q 276 736 230 736 q 206 736 197 715 q 186 686 172 593 q 164 528 155 464 q 148 420 141 387 q 136 367 137 356 z"}}}
